<svg width="84" height="84" viewBox="0 0 84 84" fill="none" xmlns="http://www.w3.org/2000/svg">
<g clip-path="url(#clip0_172_552)">
<path d="M42 74.725L36.925 70.105C18.9 53.76 7 42.945 7 29.75C7 18.935 15.47 10.5 26.25 10.5C32.34 10.5 38.185 13.335 42 17.78C45.815 13.335 51.66 10.5 57.75 10.5C68.53 10.5 77 18.935 77 29.75C77 42.945 65.1 53.76 47.075 70.105L42 74.725Z" fill="#DB1919"/>
<path d="M42.35 64.925L42 65.275L41.615 64.925C24.99 49.84 14 39.865 14 29.75C14 22.75 19.25 17.5 26.25 17.5C31.64 17.5 36.89 21 38.745 25.76L45.255 25.76C47.11 21 52.36 17.5 57.75 17.5C64.75 17.5 70 22.75 70 29.75C70 39.865 59.01 49.84 42.35 64.925ZM57.75 10.5C51.66 10.5 45.815 13.335 42 17.78C38.185 13.335 32.34 10.5 26.25 10.5C15.47 10.5 7 18.935 7 29.75C7 42.945 18.9 53.76 36.925 70.105L42 74.725L47.075 70.105C65.1 53.76 77 42.945 77 29.75C77 18.935 68.53 10.5 57.75 10.5Z" fill="black"/>
</g>
<defs>
<clipPath id="clip0_172_552">
<rect width="84" height="84" fill="white"/>
</clipPath>
</defs>
</svg>
