<svg width="38" height="27" viewBox="0 0 38 27" fill="none" xmlns="http://www.w3.org/2000/svg">
<path d="M0 0L37.5 0V26.7263L0 26.7263L0 0ZM18.75 6.68159C20.4076 6.68159 21.9973 7.38554 23.1694 8.63858C24.3415 9.89162 25 11.5911 25 13.3632C25 15.1352 24.3415 16.8347 23.1694 18.0878C21.9973 19.3408 20.4076 20.0448 18.75 20.0448C17.0924 20.0448 15.5027 19.3408 14.3306 18.0878C13.1585 16.8347 12.5 15.1352 12.5 13.3632C12.5 11.5911 13.1585 9.89162 14.3306 8.63858C15.5027 7.38554 17.0924 6.68159 18.75 6.68159ZM8.33333 4.45439C8.33333 5.63577 7.89435 6.76876 7.11295 7.60412C6.33154 8.43948 5.27174 8.90878 4.16667 8.90878V17.8176C5.27174 17.8176 6.33154 18.2869 7.11295 19.1222C7.89435 19.9576 8.33333 21.0906 8.33333 22.272L29.1667 22.272C29.1667 21.0906 29.6057 19.9576 30.3871 19.1222C31.1685 18.2869 32.2283 17.8176 33.3333 17.8176V8.90878C32.2283 8.90878 31.1685 8.43948 30.3871 7.60412C29.6057 6.76876 29.1667 5.63577 29.1667 4.45439L8.33333 4.45439Z" fill="black"/>
</svg>
